<svg xmlns="http://www.w3.org/2000/svg" xmlns:xlink="http://www.w3.org/1999/xlink" width="500" zoomAndPan="magnify" viewBox="0 0 375 374.999991" height="500" preserveAspectRatio="xMidYMid meet" version="1.0"><defs><g/></defs><path fill="#ffffff" d="M 36.039062 233.292969 L 37.617188 234.855469 L 37.773438 235.011719 C 42.6875 240.105469 42.636719 248.304688 37.617188 253.324219 C 32.597656 258.347656 24.402344 258.398438 19.3125 253.484375 L 19.152344 253.324219 L 17.574219 251.761719 L 13.273438 247.441406 C 8.199219 242.367188 8.199219 234.0625 13.273438 228.972656 C 18.34375 223.898438 26.664062 223.898438 31.738281 228.972656 Z M 123.128906 161.832031 L 126.410156 158.550781 L 142.503906 142.449219 C 147.578125 137.375 147.578125 129.070312 142.503906 123.980469 C 137.414062 118.90625 129.113281 118.90625 124.039062 123.980469 L 107.945312 140.078125 L 106.191406 141.835938 L 104.664062 143.363281 L 95.433594 152.597656 C 90.359375 157.671875 90.359375 165.976562 95.433594 171.066406 L 104.664062 180.304688 L 106.3125 181.9375 L 124.164062 199.792969 C 129.234375 204.867188 137.539062 204.867188 142.628906 199.792969 C 147.699219 194.71875 147.699219 186.394531 142.628906 181.320312 L 124.777344 163.464844 Z M 14.011719 124.101562 L 14.011719 124.085938 C 19.082031 119.011719 27.402344 119.011719 32.472656 124.085938 L 142.382812 234.046875 C 147.472656 239.121094 147.472656 247.441406 142.382812 252.515625 C 137.308594 257.589844 129.007812 257.589844 123.917969 252.515625 L 14.011719 142.554688 C 8.9375 137.480469 8.9375 129.175781 14.011719 124.101562 Z M 13.851562 176.738281 C 18.925781 171.664062 27.226562 171.664062 32.316406 176.738281 L 44.832031 189.257812 L 71.914062 216.347656 L 89.761719 234.203125 C 94.835938 239.277344 94.835938 247.601562 89.761719 252.675781 C 84.671875 257.75 76.371094 257.75 71.296875 252.675781 L 53.449219 234.820312 L 26.367188 207.726562 L 13.851562 195.210938 C 8.78125 190.136719 8.78125 181.8125 13.851562 176.738281 Z M 13.851562 176.738281 " fill-opacity="1" fill-rule="evenodd"/><g fill="#ffffff" fill-opacity="1"><g transform="translate(161.546453, 176.59218)"><g><path d="M 4.34375 0 L 4.34375 -41.15625 L 18.8125 -41.15625 C 21.71875 -41.15625 24.117188 -40.691406 26.015625 -39.765625 C 27.921875 -38.847656 29.34375 -37.59375 30.28125 -36 C 31.21875 -34.414062 31.6875 -32.644531 31.6875 -30.6875 C 31.6875 -28.019531 30.972656 -25.921875 29.546875 -24.390625 C 28.117188 -22.867188 26.40625 -21.8125 24.40625 -21.21875 C 25.925781 -20.945312 27.3125 -20.335938 28.5625 -19.390625 C 29.820312 -18.453125 30.8125 -17.28125 31.53125 -15.875 C 32.257812 -14.46875 32.625 -12.921875 32.625 -11.234375 C 32.625 -9.148438 32.113281 -7.253906 31.09375 -5.546875 C 30.082031 -3.847656 28.578125 -2.5 26.578125 -1.5 C 24.578125 -0.5 22.144531 0 19.28125 0 Z M 9.296875 -23.171875 L 18.46875 -23.171875 C 21.09375 -23.171875 23.109375 -23.785156 24.515625 -25.015625 C 25.929688 -26.253906 26.640625 -27.96875 26.640625 -30.15625 C 26.640625 -32.238281 25.941406 -33.90625 24.546875 -35.15625 C 23.148438 -36.414062 21.0625 -37.046875 18.28125 -37.046875 L 9.296875 -37.046875 Z M 9.296875 -4.109375 L 18.75 -4.109375 C 21.570312 -4.109375 23.75 -4.765625 25.28125 -6.078125 C 26.8125 -7.398438 27.578125 -9.234375 27.578125 -11.578125 C 27.578125 -13.890625 26.769531 -15.742188 25.15625 -17.140625 C 23.550781 -18.535156 21.378906 -19.234375 18.640625 -19.234375 L 9.296875 -19.234375 Z M 9.296875 -4.109375 "/></g></g></g><g fill="#ffffff" fill-opacity="1"><g transform="translate(206.037088, 176.59218)"><g><path d="M 4.34375 0 L 4.34375 -41.15625 L 17.640625 -41.15625 C 20.847656 -41.15625 23.472656 -40.625 25.515625 -39.5625 C 27.554688 -38.507812 29.066406 -37.0625 30.046875 -35.21875 C 31.023438 -33.375 31.515625 -31.335938 31.515625 -29.109375 C 31.515625 -26.515625 30.816406 -24.175781 29.421875 -22.09375 C 28.035156 -20.019531 25.875 -18.554688 22.9375 -17.703125 L 31.921875 0 L 26.109375 0 L 17.75 -17 L 9.296875 -17 L 9.296875 0 Z M 9.296875 -20.875 L 17.28125 -20.875 C 20.457031 -20.875 22.769531 -21.632812 24.21875 -23.15625 C 25.675781 -24.6875 26.40625 -26.648438 26.40625 -29.046875 C 26.40625 -31.472656 25.6875 -33.398438 24.25 -34.828125 C 22.820312 -36.265625 20.484375 -36.984375 17.234375 -36.984375 L 9.296875 -36.984375 Z M 9.296875 -20.875 "/></g></g></g><g fill="#ffffff" fill-opacity="1"><g transform="translate(249.998857, 176.59218)"><g><path d="M 1.765625 0 L 16.9375 -41.15625 L 22.171875 -41.15625 L 37.28125 0 L 32.046875 0 L 28.28125 -10.578125 L 10.765625 -10.578125 L 6.9375 0 Z M 12.234375 -14.578125 L 26.8125 -14.578125 L 19.515625 -34.921875 Z M 12.234375 -14.578125 "/></g></g></g><g fill="#ffffff" fill-opacity="1"><g transform="translate(298.132919, 176.59218)"><g><path d="M 4.34375 0 L 4.34375 -41.15625 L 9.296875 -41.15625 L 9.296875 0 Z M 4.34375 0 "/></g></g></g><g fill="#ffffff" fill-opacity="1"><g transform="translate(320.880612, 176.59218)"><g><path d="M 4.34375 0 L 4.34375 -41.15625 L 9.296875 -41.15625 L 31.21875 -8.171875 L 31.21875 -41.15625 L 36.15625 -41.15625 L 36.15625 0 L 31.21875 0 L 9.296875 -32.984375 L 9.296875 0 Z M 4.34375 0 "/></g></g></g><g fill="#ffffff" fill-opacity="1"><g transform="translate(186.938042, 236.088632)"><g><path d="M 20.015625 0.640625 C 16.523438 0.640625 13.460938 -0.164062 10.828125 -1.78125 C 8.203125 -3.40625 6.160156 -5.664062 4.703125 -8.5625 C 3.242188 -11.46875 2.515625 -14.820312 2.515625 -18.625 C 2.515625 -22.4375 3.25 -25.800781 4.71875 -28.71875 C 6.195312 -31.632812 8.296875 -33.910156 11.015625 -35.546875 C 13.742188 -37.179688 16.957031 -38 20.65625 -38 C 24.851562 -38 28.347656 -36.984375 31.140625 -34.953125 C 33.929688 -32.929688 35.738281 -30.140625 36.5625 -26.578125 L 31.390625 -26.578125 C 30.890625 -28.816406 29.703125 -30.59375 27.828125 -31.90625 C 25.960938 -33.226562 23.570312 -33.890625 20.65625 -33.890625 C 17.914062 -33.890625 15.53125 -33.273438 13.5 -32.046875 C 11.476562 -30.816406 9.90625 -29.0625 8.78125 -26.78125 C 7.65625 -24.507812 7.09375 -21.789062 7.09375 -18.625 C 7.09375 -15.457031 7.644531 -12.734375 8.75 -10.453125 C 9.851562 -8.179688 11.382812 -6.429688 13.34375 -5.203125 C 15.300781 -3.972656 17.578125 -3.359375 20.171875 -3.359375 C 24.160156 -3.359375 27.164062 -4.523438 29.1875 -6.859375 C 31.21875 -9.191406 32.378906 -12.382812 32.671875 -16.4375 L 21.890625 -16.4375 L 21.890625 -19.96875 L 37.25 -19.96875 L 37.25 0 L 33.140625 0 L 32.765625 -6.140625 C 31.421875 -3.960938 29.769531 -2.285156 27.8125 -1.109375 C 25.851562 0.0546875 23.253906 0.640625 20.015625 0.640625 Z M 20.015625 0.640625 "/></g></g></g><g fill="#ffffff" fill-opacity="1"><g transform="translate(235.604417, 236.088632)"><g><path d="M 3.953125 0 L 3.953125 -37.359375 L 16.015625 -37.359375 C 18.929688 -37.359375 21.3125 -36.878906 23.15625 -35.921875 C 25.007812 -34.960938 26.378906 -33.644531 27.265625 -31.96875 C 28.160156 -30.300781 28.609375 -28.453125 28.609375 -26.421875 C 28.609375 -24.066406 27.972656 -21.945312 26.703125 -20.0625 C 25.441406 -18.175781 23.476562 -16.84375 20.8125 -16.0625 L 28.984375 0 L 23.703125 0 L 16.125 -15.421875 L 8.4375 -15.421875 L 8.4375 0 Z M 8.4375 -18.953125 L 15.6875 -18.953125 C 18.570312 -18.953125 20.671875 -19.644531 21.984375 -21.03125 C 23.304688 -22.414062 23.96875 -24.195312 23.96875 -26.375 C 23.96875 -28.570312 23.316406 -30.320312 22.015625 -31.625 C 20.710938 -32.925781 18.585938 -33.578125 15.640625 -33.578125 L 8.4375 -33.578125 Z M 8.4375 -18.953125 "/></g></g></g><g fill="#ffffff" fill-opacity="1"><g transform="translate(275.520322, 236.088632)"><g><path d="M 3.953125 0 L 3.953125 -37.359375 L 8.4375 -37.359375 L 8.4375 0 Z M 3.953125 0 "/></g></g></g><g fill="#ffffff" fill-opacity="1"><g transform="translate(296.174513, 236.088632)"><g><path d="M 3.953125 0 L 3.953125 -37.359375 L 15.421875 -37.359375 C 22.003906 -37.359375 26.851562 -35.6875 29.96875 -32.34375 C 33.082031 -29 34.640625 -24.410156 34.640625 -18.578125 C 34.640625 -12.847656 33.082031 -8.316406 29.96875 -4.984375 C 26.851562 -1.660156 22.003906 0 15.421875 0 Z M 8.4375 -3.734375 L 15.3125 -3.734375 C 18.945312 -3.734375 21.835938 -4.328125 23.984375 -5.515625 C 26.140625 -6.710938 27.679688 -8.421875 28.609375 -10.640625 C 29.535156 -12.867188 30 -15.515625 30 -18.578125 C 30 -21.703125 29.535156 -24.382812 28.609375 -26.625 C 27.679688 -28.875 26.140625 -30.601562 23.984375 -31.8125 C 21.835938 -33.019531 18.945312 -33.625 15.3125 -33.625 L 8.4375 -33.625 Z M 8.4375 -3.734375 "/></g></g></g></svg>