<svg xmlns="http://www.w3.org/2000/svg" xmlns:xlink="http://www.w3.org/1999/xlink" width="500" zoomAndPan="magnify" viewBox="0 0 375 374.999991" height="500" preserveAspectRatio="xMidYMid meet" version="1.0"><defs><g/></defs><path fill="#ffffff" d="M 143.964844 212.890625 L 145.613281 214.511719 L 145.777344 214.675781 C 150.902344 219.960938 150.847656 228.46875 145.613281 233.679688 C 140.375 238.890625 131.828125 238.941406 126.519531 233.84375 L 126.355469 233.679688 L 124.707031 232.054688 L 120.222656 227.574219 C 114.929688 222.308594 114.929688 213.691406 120.222656 208.410156 C 125.511719 203.144531 134.1875 203.144531 139.480469 208.410156 Z M 234.796875 138.738281 L 236.390625 137.152344 L 238.222656 135.332031 L 255.007812 118.625 C 260.300781 113.359375 260.300781 104.742188 255.007812 99.457031 C 249.699219 94.191406 241.042969 94.191406 235.75 99.457031 L 218.964844 116.164062 L 217.132812 117.988281 L 215.539062 119.574219 L 205.910156 129.15625 C 200.621094 134.421875 200.621094 143.039062 205.910156 148.320312 L 215.539062 157.90625 L 217.261719 159.597656 L 235.878906 178.128906 C 241.167969 183.394531 249.828125 183.394531 255.136719 178.128906 C 260.425781 172.863281 260.425781 164.226562 255.136719 158.960938 L 236.519531 140.433594 Z M 120.992188 99.585938 L 120.992188 99.566406 C 126.28125 94.300781 134.957031 94.300781 140.25 99.566406 L 254.878906 213.671875 C 260.1875 218.9375 260.1875 227.574219 254.878906 232.839844 C 249.589844 238.105469 240.929688 238.105469 235.621094 232.839844 L 120.992188 118.734375 C 115.699219 113.46875 115.699219 104.851562 120.992188 99.585938 Z M 120.824219 154.207031 C 126.117188 148.941406 134.773438 148.941406 140.082031 154.207031 L 153.136719 167.195312 L 181.382812 195.308594 L 200 213.835938 C 205.289062 219.101562 205.289062 227.738281 200 233.003906 C 194.691406 238.269531 186.03125 238.269531 180.742188 233.003906 L 162.125 214.476562 L 133.878906 186.363281 L 120.824219 173.375 C 115.535156 168.109375 115.535156 159.472656 120.824219 154.207031 Z M 120.824219 154.207031 " fill-opacity="1" fill-rule="evenodd"/><g fill="#ffffff" fill-opacity="1"><g transform="translate(109.77681, 273.535128)"><g><path d="M 1.828125 0 L 1.828125 -17.28125 L 7.90625 -17.28125 C 9.125 -17.28125 10.128906 -17.085938 10.921875 -16.703125 C 11.722656 -16.316406 12.320312 -15.789062 12.71875 -15.125 C 13.113281 -14.457031 13.3125 -13.710938 13.3125 -12.890625 C 13.3125 -11.765625 13.007812 -10.878906 12.40625 -10.234375 C 11.800781 -9.597656 11.082031 -9.15625 10.25 -8.90625 C 10.882812 -8.789062 11.460938 -8.535156 11.984375 -8.140625 C 12.515625 -7.742188 12.929688 -7.25 13.234375 -6.65625 C 13.546875 -6.070312 13.703125 -5.425781 13.703125 -4.71875 C 13.703125 -3.84375 13.488281 -3.046875 13.0625 -2.328125 C 12.632812 -1.617188 12 -1.050781 11.15625 -0.625 C 10.320312 -0.207031 9.300781 0 8.09375 0 Z M 3.90625 -9.734375 L 7.75 -9.734375 C 8.851562 -9.734375 9.703125 -9.988281 10.296875 -10.5 C 10.890625 -11.019531 11.1875 -11.742188 11.1875 -12.671875 C 11.1875 -13.535156 10.894531 -14.226562 10.3125 -14.75 C 9.726562 -15.28125 8.847656 -15.546875 7.671875 -15.546875 L 3.90625 -15.546875 Z M 3.90625 -1.734375 L 7.875 -1.734375 C 9.0625 -1.734375 9.972656 -2.003906 10.609375 -2.546875 C 11.253906 -3.097656 11.578125 -3.867188 11.578125 -4.859375 C 11.578125 -5.828125 11.238281 -6.601562 10.5625 -7.1875 C 9.882812 -7.78125 8.972656 -8.078125 7.828125 -8.078125 L 3.90625 -8.078125 Z M 3.90625 -1.734375 "/></g></g></g><g fill="#ffffff" fill-opacity="1"><g transform="translate(128.461413, 273.535128)"><g><path d="M 1.828125 0 L 1.828125 -17.28125 L 7.40625 -17.28125 C 8.757812 -17.28125 9.863281 -17.054688 10.71875 -16.609375 C 11.570312 -16.171875 12.203125 -15.5625 12.609375 -14.78125 C 13.023438 -14.007812 13.234375 -13.15625 13.234375 -12.21875 C 13.234375 -11.132812 12.941406 -10.15625 12.359375 -9.28125 C 11.773438 -8.40625 10.863281 -7.789062 9.625 -7.4375 L 13.40625 0 L 10.96875 0 L 7.453125 -7.140625 L 3.90625 -7.140625 L 3.90625 0 Z M 3.90625 -8.765625 L 7.265625 -8.765625 C 8.597656 -8.765625 9.566406 -9.082031 10.171875 -9.71875 C 10.773438 -10.363281 11.078125 -11.191406 11.078125 -12.203125 C 11.078125 -13.210938 10.773438 -14.019531 10.171875 -14.625 C 9.578125 -15.226562 8.597656 -15.53125 7.234375 -15.53125 L 3.90625 -15.53125 Z M 3.90625 -8.765625 "/></g></g></g><g fill="#ffffff" fill-opacity="1"><g transform="translate(146.92391, 273.535128)"><g><path d="M 0.734375 0 L 7.109375 -17.28125 L 9.3125 -17.28125 L 15.65625 0 L 13.453125 0 L 11.875 -4.4375 L 4.515625 -4.4375 L 2.90625 0 Z M 5.140625 -6.125 L 11.25 -6.125 L 8.203125 -14.671875 Z M 5.140625 -6.125 "/></g></g></g><g fill="#ffffff" fill-opacity="1"><g transform="translate(167.138633, 273.535128)"><g><path d="M 1.828125 0 L 1.828125 -17.28125 L 3.90625 -17.28125 L 3.90625 0 Z M 1.828125 0 "/></g></g></g><g fill="#ffffff" fill-opacity="1"><g transform="translate(176.691916, 273.535128)"><g><path d="M 1.828125 0 L 1.828125 -17.28125 L 3.90625 -17.28125 L 13.109375 -3.4375 L 13.109375 -17.28125 L 15.1875 -17.28125 L 15.1875 0 L 13.109375 0 L 3.90625 -13.84375 L 3.90625 0 Z M 1.828125 0 "/></g></g></g><g fill="#ffffff" fill-opacity="1"><g transform="translate(197.523616, 273.535128)"><g><path d="M 9.265625 0.296875 C 7.648438 0.296875 6.234375 -0.078125 5.015625 -0.828125 C 3.796875 -1.578125 2.847656 -2.617188 2.171875 -3.953125 C 1.492188 -5.296875 1.15625 -6.847656 1.15625 -8.609375 C 1.15625 -10.367188 1.492188 -11.925781 2.171875 -13.28125 C 2.859375 -14.632812 3.832031 -15.6875 5.09375 -16.4375 C 6.351562 -17.195312 7.835938 -17.578125 9.546875 -17.578125 C 11.492188 -17.578125 13.113281 -17.109375 14.40625 -16.171875 C 15.695312 -15.234375 16.53125 -13.941406 16.90625 -12.296875 L 14.515625 -12.296875 C 14.285156 -13.328125 13.738281 -14.144531 12.875 -14.75 C 12.007812 -15.363281 10.898438 -15.671875 9.546875 -15.671875 C 8.285156 -15.671875 7.1875 -15.382812 6.25 -14.8125 C 5.3125 -14.25 4.582031 -13.441406 4.0625 -12.390625 C 3.539062 -11.335938 3.28125 -10.078125 3.28125 -8.609375 C 3.28125 -7.148438 3.535156 -5.894531 4.046875 -4.84375 C 4.554688 -3.789062 5.265625 -2.976562 6.171875 -2.40625 C 7.078125 -1.84375 8.128906 -1.5625 9.328125 -1.5625 C 11.171875 -1.5625 12.5625 -2.097656 13.5 -3.171875 C 14.4375 -4.253906 14.972656 -5.734375 15.109375 -7.609375 L 10.125 -7.609375 L 10.125 -9.234375 L 17.234375 -9.234375 L 17.234375 0 L 15.328125 0 L 15.15625 -2.84375 C 14.53125 -1.832031 13.765625 -1.054688 12.859375 -0.515625 C 11.953125 0.0234375 10.753906 0.296875 9.265625 0.296875 Z M 9.265625 0.296875 "/></g></g></g><g fill="#ffffff" fill-opacity="1"><g transform="translate(220.03351, 273.535128)"><g><path d="M 1.828125 0 L 1.828125 -17.28125 L 7.40625 -17.28125 C 8.757812 -17.28125 9.863281 -17.054688 10.71875 -16.609375 C 11.570312 -16.171875 12.203125 -15.5625 12.609375 -14.78125 C 13.023438 -14.007812 13.234375 -13.15625 13.234375 -12.21875 C 13.234375 -11.132812 12.941406 -10.15625 12.359375 -9.28125 C 11.773438 -8.40625 10.863281 -7.789062 9.625 -7.4375 L 13.40625 0 L 10.96875 0 L 7.453125 -7.140625 L 3.90625 -7.140625 L 3.90625 0 Z M 3.90625 -8.765625 L 7.265625 -8.765625 C 8.597656 -8.765625 9.566406 -9.082031 10.171875 -9.71875 C 10.773438 -10.363281 11.078125 -11.191406 11.078125 -12.203125 C 11.078125 -13.210938 10.773438 -14.019531 10.171875 -14.625 C 9.578125 -15.226562 8.597656 -15.53125 7.234375 -15.53125 L 3.90625 -15.53125 Z M 3.90625 -8.765625 "/></g></g></g><g fill="#ffffff" fill-opacity="1"><g transform="translate(238.496014, 273.535128)"><g><path d="M 1.828125 0 L 1.828125 -17.28125 L 3.90625 -17.28125 L 3.90625 0 Z M 1.828125 0 "/></g></g></g><g fill="#ffffff" fill-opacity="1"><g transform="translate(248.049303, 273.535128)"><g><path d="M 1.828125 0 L 1.828125 -17.28125 L 7.140625 -17.28125 C 10.179688 -17.28125 12.421875 -16.503906 13.859375 -14.953125 C 15.296875 -13.410156 16.015625 -11.289062 16.015625 -8.59375 C 16.015625 -5.9375 15.296875 -3.835938 13.859375 -2.296875 C 12.421875 -0.765625 10.179688 0 7.140625 0 Z M 3.90625 -1.734375 L 7.078125 -1.734375 C 8.765625 -1.734375 10.101562 -2.003906 11.09375 -2.546875 C 12.09375 -3.097656 12.804688 -3.890625 13.234375 -4.921875 C 13.660156 -5.953125 13.875 -7.175781 13.875 -8.59375 C 13.875 -10.039062 13.660156 -11.28125 13.234375 -12.3125 C 12.804688 -13.351562 12.09375 -14.148438 11.09375 -14.703125 C 10.101562 -15.265625 8.765625 -15.546875 7.078125 -15.546875 L 3.90625 -15.546875 Z M 3.90625 -1.734375 "/></g></g></g></svg>